<svg xmlns="http://www.w3.org/2000/svg" xmlns:xlink="http://www.w3.org/1999/xlink" width="500" zoomAndPan="magnify" viewBox="0 0 375 374.999991" height="500" preserveAspectRatio="xMidYMid meet" version="1.0"><defs><clipPath id="94eb85064b"><path d="M 147 283 L 220 283 L 220 373.519531 L 147 373.519531 Z M 147 283 " clip-rule="nonzero"/></clipPath></defs><path fill="#8ce5be" d="M 195.53125 308.277344 C 195.53125 308.277344 173.535156 238.75 179.832031 114.777344 C 186.128906 -9.199219 228.480469 -19.367188 238.402344 27.15625 C 248.324219 73.679688 229.515625 118.136719 238.402344 105.988281 C 247.289062 93.839844 282.308594 28.792969 292.832031 56.964844 C 303.355469 85.136719 261.433594 141.742188 274.027344 138.382812 C 286.621094 135.023438 324.75 133.644531 314.828125 151.820312 C 304.910156 170 194.496094 222.035156 195.53125 308.277344 Z M 195.53125 308.277344 " fill-opacity="1" fill-rule="nonzero"/><path fill="#6cc49a" d="M 195.960938 262.097656 C 195.960938 262.097656 193.546875 179.90625 228.050781 131.660156 C 262.554688 83.414062 277.652344 75.058594 277.652344 75.058594 C 277.652344 75.058594 200.015625 166.382812 195.960938 262.097656 Z M 195.960938 262.097656 " fill-opacity="1" fill-rule="nonzero"/><path fill="#6cc49a" d="M 195.960938 295.09375 C 196.132812 295.613281 76.230469 206.097656 76.75 179.132812 C 77.265625 152.167969 111.769531 195.761719 108.664062 172.152344 C 105.558594 148.546875 37.5 117.445312 57.859375 96.253906 C 78.214844 75.058594 121.691406 168.363281 129.023438 142.777344 C 136.355469 117.1875 139.460938 41.632812 154.644531 75.058594 C 169.824219 108.484375 161.800781 201.445312 195.960938 295.09375 Z M 195.960938 295.09375 " fill-opacity="1" fill-rule="nonzero"/><path fill="#4ea077" d="M 91.929688 134.675781 C 91.929688 134.675781 153.695312 169.050781 173.535156 258.050781 C 173.535156 258.050781 139.203125 176.375 91.929688 134.675781 Z M 91.929688 134.675781 " fill-opacity="1" fill-rule="nonzero"/><path fill="#bdf9dd" d="M 185.523438 301.988281 C 185.523438 305.261719 141.445312 234.789062 144.117188 198.34375 C 146.792969 161.902344 168.273438 231.339844 171.894531 213.164062 C 175.519531 194.984375 177.675781 141.742188 190.183594 157.851562 C 202.777344 174.050781 183.886719 228.929688 193.289062 225.050781 C 202.691406 221.175781 229.34375 207.992188 227.792969 225.050781 C 226.324219 242.195312 185.523438 266.0625 185.523438 301.988281 Z M 185.523438 301.988281 " fill-opacity="1" fill-rule="nonzero"/><path fill="#8ce5be" d="M 183.453125 270.800781 C 183.453125 270.800781 172.5 210.835938 183.453125 174.394531 C 183.453125 174.480469 180.347656 254.6875 183.453125 270.800781 Z M 183.453125 270.800781 " fill-opacity="1" fill-rule="nonzero"/><g clip-path="url(#94eb85064b)"><path fill="#88bfd8" d="M 219.253906 300.4375 C 219.253906 291.046875 213.386719 283.464844 206.140625 283.464844 L 160.765625 283.464844 C 153.519531 283.464844 147.65625 291.046875 147.65625 300.4375 C 147.65625 306.46875 150.15625 311.808594 153.867188 314.738281 C 153.78125 315.601562 153.695312 316.460938 153.695312 317.324219 L 153.695312 356.4375 C 153.695312 365.828125 159.558594 373.410156 166.804688 373.410156 L 200.1875 373.410156 C 207.433594 373.410156 213.300781 365.828125 213.300781 356.4375 L 213.300781 317.324219 C 213.300781 316.460938 213.214844 315.601562 213.128906 314.738281 C 216.75 311.722656 219.253906 306.46875 219.253906 300.4375 Z M 219.253906 300.4375 " fill-opacity="1" fill-rule="nonzero"/></g><path fill="#c4ecf7" d="M 159.386719 292.425781 C 159.386719 292.425781 151.019531 306.554688 159.386719 309.914062 C 167.753906 313.273438 201.742188 309.914062 201.742188 309.914062 C 201.742188 309.914062 157.316406 311.980469 159.386719 292.425781 Z M 159.386719 292.425781 " fill-opacity="1" fill-rule="nonzero"/></svg>